<?xml version="1.0" standalone="no"?><!DOCTYPE svg PUBLIC "-//W3C//DTD SVG 1.1//EN" "http://www.w3.org/Graphics/SVG/1.1/DTD/svg11.dtd"><svg t="1738944351869" class="icon" viewBox="0 0 1024 1024" version="1.1" xmlns="http://www.w3.org/2000/svg" p-id="6154" xmlns:xlink="http://www.w3.org/1999/xlink" width="32" height="32"><path d="M850.016 438.016H471.008q-14.016 0-23.488 9.504t-9.504 23.488v82.016q0 14.016 9.504 23.488t23.488 9.504h230.016q14.016 0 23.488 9.504t9.504 23.488v16.992q0 19.008-7.488 37.504t-20.992 32-32 20.992-37.504 7.488h-314.016q-12.992 0-23.008-9.504t-10.016-23.488v-312.992q0-19.008 8-37.504t21.504-32 32-20.992 37.504-7.488h462.016q12.992 0 23.008-10.016t10.016-23.008V173.984q0-12.992-10.016-23.008t-23.008-10.016H388q-67.008 0-123.488 33.504T174.496 264.48t-33.504 123.488v462.016q0 12.992 10.016 23.008t23.008 10.016h486.016q44.992 0 85.504-16.992t72-48.512 48.512-72 16.992-85.504v-188.992q0-14.016-10.016-23.488t-23.008-9.504z" p-id="6155" fill="#ffffff"></path></svg>