<?xml version="1.0" standalone="no"?><!DOCTYPE svg PUBLIC "-//W3C//DTD SVG 1.1//EN" "http://www.w3.org/Graphics/SVG/1.1/DTD/svg11.dtd"><svg t="1731900534828" class="icon" viewBox="0 0 1024 1024" version="1.1" xmlns="http://www.w3.org/2000/svg" p-id="6158" xmlns:xlink="http://www.w3.org/1999/xlink" width="64" height="64"><path d="M512 554.666667c61.866667 0 113.066667 10.666667 157.866667 25.6-12.8 17.066667-19.2 38.4-19.2 59.733333v25.6c-36.266667-17.066667-83.2-25.6-138.666667-25.6-130.133333 0-206.933333 49.066667-241.066667 121.6-8.533333 17.066667-12.8 34.133333-12.8 46.933333v2.133334h256c4.266667 38.4 27.733333 70.4 59.733334 85.333333H213.333333c-85.333333 0-68.266667-341.333333 298.666667-341.333333zM512 128c106.666667 0 181.333333 85.333333 181.333333 192S618.666667 512 512 512s-181.333333-85.333333-181.333333-192S405.333333 128 512 128z m0 85.333333c-55.466667 0-96 44.8-96 106.666667s40.533333 106.666667 96 106.666667 96-44.8 96-106.666667-40.533333-106.666667-96-106.666667z" p-id="6159"></path><path d="M778.666667 597.333333c12.8 0 21.333333 8.533333 21.333333 21.333334v117.333333H917.333333c12.8 0 21.333333 8.533333 21.333334 21.333333v21.333334c0 12.8-8.533333 21.333333-21.333334 21.333333h-117.333333V917.333333c0 12.8-8.533333 21.333333-21.333333 21.333334h-21.333334c-12.8 0-21.333333-8.533333-21.333333-21.333334v-117.333333H618.666667c-12.8 0-21.333333-8.533333-21.333334-21.333333v-21.333334c0-12.8 8.533333-21.333333 21.333334-21.333333h117.333333V618.666667c0-12.8 8.533333-21.333333 21.333333-21.333334h21.333334z" p-id="6160"></path></svg>