<?xml version="1.0" standalone="no"?><!DOCTYPE svg PUBLIC "-//W3C//DTD SVG 1.1//EN" "http://www.w3.org/Graphics/SVG/1.1/DTD/svg11.dtd"><svg t="1731684778937" class="icon" viewBox="0 0 1042 1024" version="1.1" xmlns="http://www.w3.org/2000/svg" p-id="18758" xmlns:xlink="http://www.w3.org/1999/xlink" width="65.125" height="64"><path d="M224.914286 804.571429c0-151.771429 122.514286-274.285714 274.285714-274.285715 73.142857 0 140.8 29.257143 193.828571 80.457143l51.2-51.2c-31.085714-31.085714-67.657143-56.685714-107.885714-73.142857 60.342857-43.885714 100.571429-113.371429 100.571429-193.828571 0-131.657143-106.057143-237.714286-237.714286-237.714286s-237.714286 106.057143-237.714286 237.714286c0 80.457143 40.228571 149.942857 100.571429 193.828571C239.542857 539.428571 151.771429 661.942857 151.771429 804.571429v164.571428c0 20.114286 16.457143 36.571429 36.571428 36.571429h310.857143v-73.142857h-274.285714v-128z m109.714285-512c0-91.428571 73.142857-164.571429 164.571429-164.571429s164.571429 73.142857 164.571429 164.571429-73.142857 164.571429-164.571429 164.571428-164.571429-73.142857-164.571429-164.571428z" p-id="18759"></path><path d="M883.2 832c0-95.085714-78.628571-173.714286-173.714286-173.714286s-173.714286 78.628571-173.714285 173.714286 78.628571 173.714286 173.714285 173.714286c34.742857 0 67.657143-10.971429 93.257143-27.428572l27.428572 27.428572 51.2-51.2-27.428572-27.428572c20.114286-27.428571 29.257143-60.342857 29.257143-95.085714z m-274.285714 0c0-54.857143 45.714286-100.571429 100.571428-100.571429s100.571429 45.714286 100.571429 100.571429-45.714286 100.571429-100.571429 100.571429-100.571429-45.714286-100.571428-100.571429z" p-id="18760"></path></svg>