<?xml version="1.0" standalone="no"?><!DOCTYPE svg PUBLIC "-//W3C//DTD SVG 1.1//EN" "http://www.w3.org/Graphics/SVG/1.1/DTD/svg11.dtd"><svg t="1713965660147" class="icon" viewBox="0 0 1024 1024" version="1.1" xmlns="http://www.w3.org/2000/svg" p-id="5615" xmlns:xlink="http://www.w3.org/1999/xlink" width="256" height="256"><path d="M768.284444 476.359111C700.188444 367.388444 593.891556 312.888889 449.308444 312.888889 213.987556 312.888889 113.777778 445.212444 113.777778 505.457778c0 60.188444 84.394667 192.512 335.530666 192.512 154.794667 0 262.087111-54.840889 321.848889-164.579556l107.861334 113.635556a12.913778 12.913778 0 0 0 22.272-8.903111V349.212444a12.913778 12.913778 0 0 0-22.926223-8.163555l-110.08 135.310222z m43.889778-189.155555a98.247111 98.247111 0 0 1 174.449778 62.008888v288.910223a98.247111 98.247111 0 0 1-169.500444 67.640889l-38.599112-40.675556c-79.104 78.734222-190.748444 118.215111-329.216 118.215111C198.485333 783.303111 28.444444 651.776 28.444444 505.457778 28.444444 362.951111 210.033778 227.555556 449.308444 227.555556c129.422222 0 237.084444 38.456889 318.378667 114.346666l44.487111-54.698666zM430.705778 739.413333l-71.765334-46.165333c27.875556-43.320889 47.701333-122.680889 47.701334-187.818667 0-53.703111-27.448889-139.036444-58.88-189.866666l72.590222-44.885334c39.310222 63.601778 71.623111 164.067556 71.623111 234.752 0 80.497778-23.808 175.786667-61.269333 233.984zM241.777778 562.346667a42.666667 42.666667 0 1 1 0-85.333334 42.666667 42.666667 0 0 1 0 85.333334z" fill="#1296db" p-id="5616" data-spm-anchor-id="a313x.search_index.0.i24.38b93a81dvE1eE" class="selected"></path></svg>