<?xml version="1.0" standalone="no"?><!DOCTYPE svg PUBLIC "-//W3C//DTD SVG 1.1//EN" "http://www.w3.org/Graphics/SVG/1.1/DTD/svg11.dtd"><svg t="1694517255027" class="icon" viewBox="0 0 1024 1024" version="1.1" xmlns="http://www.w3.org/2000/svg" p-id="12155" xmlns:xlink="http://www.w3.org/1999/xlink" width="200" height="200"><path d="M864 122H160c-52.9 0-96 43.1-96 96v448c0 52.9 43.1 96 96 96h203.5L512 902l148.4-140H864c52.9 0 96-43.1 96-96V218c0-52.9-43.1-96-96-96z m32 544c0 17.6-14.3 32-32 32H635L512 814 388.9 698H160c-17.7 0-32-14.4-32-32V218c0-17.7 14.3-32 32-32h704c17.7 0 32 14.3 32 32v448z" fill="#47444F" p-id="12156"></path><path d="M288 378c-35.3 0-64 28.7-64 64 0 35.4 28.7 64 64 64s64-28.6 64-64c0-35.3-28.7-64-64-64zM736 378c-35.3 0-64 28.7-64 64 0 35.4 28.7 64 64 64s64-28.6 64-64c0-35.3-28.7-64-64-64zM512 378c-35.3 0-64 28.7-64 64 0 35.4 28.7 64 64 64s64-28.6 64-64c0-35.3-28.7-64-64-64z" fill="#47444F" p-id="12157"></path></svg>