<?xml version="1.0" standalone="no"?><!DOCTYPE svg PUBLIC "-//W3C//DTD SVG 1.1//EN" "http://www.w3.org/Graphics/SVG/1.1/DTD/svg11.dtd"><svg t="1731661780750" class="icon" viewBox="0 0 1024 1024" version="1.1" xmlns="http://www.w3.org/2000/svg" p-id="1848" xmlns:xlink="http://www.w3.org/1999/xlink" width="64" height="64"><path d="M896 545.698909l42.496 3.956364a42.682182 42.682182 0 0 0-67.863273-38.260364l25.367273 34.304zM478.301091 128l34.304 25.367273a42.682182 42.682182 0 0 0-38.213818-67.863273l3.909818 42.496z m375.202909 413.789091a341.317818 341.317818 0 0 1-69.818182 177.338182l67.490909 52.224a426.682182 426.682182 0 0 0 87.319273-221.696l-84.992-7.912728z m-69.818182 177.338182a341.317818 341.317818 0 0 1-154.065454 112.267636l28.951272 80.290909a426.682182 426.682182 0 0 0 192.605091-140.334545l-67.490909-52.177455z m-154.065454 112.267636a341.364364 341.364364 0 0 1-190.277819 12.101818l-18.571636 83.316364c79.127273 17.640727 161.605818 12.381091 237.847273-15.127273l-29.044364-80.290909z m-190.277819 12.101818a341.410909 341.410909 0 0 1-167.098181-91.741091l-60.322909 60.322909a426.635636 426.635636 0 0 0 208.849454 114.734546l18.618182-83.316364z m-167.098181-91.741091a341.364364 341.364364 0 0 1-91.741091-167.098181l-83.316364 18.571636a426.682182 426.682182 0 0 0 114.734546 208.849454L272.290909 751.709091z m-91.741091-167.098181a341.364364 341.364364 0 0 1 12.101818-190.231273L112.360727 365.381818a426.682182 426.682182 0 0 0-15.173818 237.800727l83.316364-18.571636z m12.101818-190.231273a341.317818 341.317818 0 0 1 112.267636-154.065455l-52.224-67.490909A426.682182 426.682182 0 0 0 112.360727 365.381818l80.244364 28.997818z m112.267636-154.065455a341.317818 341.317818 0 0 1 177.338182-69.864727l-7.819636-84.992a426.682182 426.682182 0 0 0-221.742546 87.319273l52.224 67.490909z m139.124364-137.728A341.317818 341.317818 0 0 0 378.088727 330.938182l85.085091-6.376727a256 256 0 0 1 49.431273-171.194182L444.043636 102.632727zM378.088727 330.938182a341.317818 341.317818 0 0 0 99.048728 215.970909l60.322909-60.369455a256 256 0 0 1-74.286546-161.978181l-85.085091 6.376727z m99.048728 215.970909a341.317818 341.317818 0 0 0 215.970909 99.002182l6.330181-85.085091a256 256 0 0 1-161.978181-74.286546L477.090909 546.909091z m215.970909 99.002182a341.364364 341.364364 0 0 0 228.258909-65.908364l-50.734546-68.608a256 256 0 0 1-171.194182 49.431273l-6.330181 85.085091z" p-id="1849"></path></svg>