<?xml version="1.0" standalone="no"?><!DOCTYPE svg PUBLIC "-//W3C//DTD SVG 1.1//EN" "http://www.w3.org/Graphics/SVG/1.1/DTD/svg11.dtd"><svg t="1734805230020" class="icon" viewBox="0 0 1024 1024" version="1.1" xmlns="http://www.w3.org/2000/svg" p-id="14027" xmlns:xlink="http://www.w3.org/1999/xlink" width="64" height="64"><path d="M0 0.036408m170.660599 0l682.642395 0q170.660599 0 170.660598 170.660598l0 682.642395q0 170.660599-170.660598 170.660599l-682.642395 0q-170.660599 0-170.660599-170.660599l0-682.642395q0-170.660599 170.660599-170.660598Z" fill="#C9EFEA" p-id="14028"></path><path d="M242.963806 494.525492a10.410297 10.410297 0 0 0-4.80694-8.70369l-82.912608-49.008035c-1.592832-1.109294-3.214108-1.109294-4.835384-1.109294h-1.023963a15.018133 15.018133 0 0 0-4.80694 1.109294l-82.941051 49.008035c-3.157221 1.621276-4.750053 5.432696-4.750054 8.70369v131.80687c0 1.621276 1.052407 3.242551 2.64524 4.351845 1.592832 1.109294 3.185665 1.109294 4.778496 0L113.773732 601.842566c3.214108-1.649719 4.80694-5.461139 4.806941-8.732134v-61.55159c0-3.782977 2.133257-7.082415 4.778496-8.70369l20.735263-12.515111a8.4477 8.4477 0 0 1 4.778497-1.649719c1.592832 0 3.697646 0.568869 4.80694 1.621276l20.706819 12.543554c3.214108 1.621276 4.778497 5.432696 4.778497 8.70369v61.011164c0 3.81142 2.133257 7.082415 4.80694 8.703691l49.434687 28.870085c1.592832 1.08085 3.72609 1.08085 4.778497 0 1.592832-1.08085 2.645239-2.73057 2.645239-4.380289l2.161701-131.238001z" fill="#333333" p-id="14029"></path><path d="M647.457868 563.159497c0 1.08085-0.540425 1.649719-1.08085 2.190144l-28.699424 16.866956c-0.511982 0.568869-1.564389 0.568869-2.673683 0L586.33293 565.349641c-0.540425-0.568869-1.08085-1.109294-1.08085-2.190144V529.368698c0-1.109294 0.568869-1.621276 1.08085-2.190144l28.670981-16.866956c0.568869-0.568869 1.621276-0.568869 2.673683 0l28.727867 16.866956c0.511982 0.568869 1.052407 1.08085 1.052407 2.190144v33.762355z m50.828415-221.11925L649.363578 313.710588a3.925194 3.925194 0 0 0-4.80694 0c-1.564389 1.109294-2.645239 2.73057-2.645239 4.380289v130.15715c0 1.08085-0.511982 2.73057-1.592833 3.270995a4.408732 4.408732 0 0 1-3.726089 0l-20.70682-12.003129a11.092939 11.092939 0 0 0-10.125862 0L522.818744 488.552371C519.661523 490.173647 518.068691 494.013511 518.068691 497.227619v98.044514c0 3.81142 2.104814 7.082415 4.750053 8.70369l82.941051 49.008035a11.092939 11.092939 0 0 0 10.125862 0l82.912608-49.008035c3.185665-1.621276 4.80694-5.432696 4.80694-8.70369V350.743938a9.727654 9.727654 0 0 0-5.318922-8.703691z" fill="#333333" p-id="14030"></path><path d="M933.854796 528.287848c3.185665-1.621276 4.778497-5.432696 4.778497-8.703691v-23.977814a10.410297 10.410297 0 0 0-4.778497-8.732134L851.454171 437.866174a11.121382 11.121382 0 0 0-10.125863 0L758.415701 486.874209C755.230036 488.523928 753.637204 492.335348 753.637204 495.606343V593.650857c0 3.81142 2.133257 7.053971 5.318922 8.70369l82.372182 47.927185a9.955202 9.955202 0 0 0 9.585437 0l49.975112-28.329659c1.592832-1.08085 2.673683-2.73057 2.673683-4.351845 0-1.649719-1.08085-3.81142-2.673683-4.351846L817.407381 564.240347c-1.564389-1.109294-2.645239-2.73057-2.645239-4.351845V529.368698c0-1.621276 1.08085-3.270995 2.645239-4.351845l26.082628-15.24568a3.81142 3.81142 0 0 1 4.750054 0l26.054184 15.24568c1.621276 1.08085 2.673683 2.73057 2.673683 4.351845v23.977814c0 1.621276 1.052407 3.270995 2.645239 4.351845 1.592832 1.08085 3.697646 1.08085 4.806941 0l49.434686-29.410509z" fill="#333333" p-id="14031"></path><path d="M375.709308 437.354192a11.036052 11.036052 0 0 1 10.097419 0l82.912607 49.008035c3.214108 1.621276 4.835384 5.432696 4.835384 8.703691v98.044514a10.324966 10.324966 0 0 1-4.835384 8.70369l-82.912607 49.008035a10.922278 10.922278 0 0 1-10.097419 0l-82.941051-49.008035c-3.185665-1.621276-4.778497-5.404252-4.778497-8.70369v-98.044514c0-3.81142 2.133257-7.082415 4.778497-8.703691l82.941051-49.008035z" fill="#6FB009" p-id="14032"></path><path d="M845.054398 523.964446c0.568869-0.568869 1.08085-0.568869 2.161701 0l15.928323 9.244115c0.568869 0.540425 1.052407 1.08085 1.052407 1.621276v19.0571c0 0.568869-0.511982 1.109294-1.052407 1.649719l-15.928323 9.244116c-0.568869 0.568869-1.08085 0.568869-2.133258 0l-15.956765-9.244116c-0.540425-0.568869-1.052407-1.109294-1.052408-1.649719v-19.0571c0-0.568869 0.511982-1.08085 1.052408-1.621276l15.928322-9.272559z" fill="#333333" p-id="14033"></path></svg>