<?xml version="1.0" standalone="no"?><!DOCTYPE svg PUBLIC "-//W3C//DTD SVG 1.1//EN" "http://www.w3.org/Graphics/SVG/1.1/DTD/svg11.dtd"><svg t="1694516928786" class="icon" viewBox="0 0 1024 1024" version="1.1" xmlns="http://www.w3.org/2000/svg" p-id="7464" xmlns:xlink="http://www.w3.org/1999/xlink" width="200" height="200"><path d="M949.248 772.096l-91.136-164.864c-21.504-38.912-61.44-62.464-105.472-63.488-45.056 0-84.992 21.504-107.52 60.416-19.456 32.768-53.248 52.224-91.136 52.224H552.96c-37.888 0-71.68-19.456-91.136-52.224L329.728 380.928c-9.216-16.384-25.6-25.6-44.032-25.6-18.432 0-34.816 10.24-44.032 25.6L76.8 671.744l-50.176-28.672 164.864-289.792c19.456-34.816 55.296-55.296 94.208-55.296 39.936-1.024 75.776 19.456 95.232 54.272L509.952 573.44c9.216 15.36 24.576 23.552 41.984 23.552 17.408 0 32.768-9.216 41.984-23.552 33.792-56.32 93.184-89.088 158.72-88.064 65.536 1.024 123.904 35.84 155.648 93.184l91.136 164.864-50.176 28.672z" fill="#4C4C4C" p-id="7465"></path><path d="M882.688 844.8H138.24c-64.512 0-116.736-52.224-116.736-116.736V234.496c0-64.512 52.224-116.736 116.736-116.736h744.448c64.512 0 116.736 52.224 116.736 116.736v493.568c0 64.512-52.224 116.736-116.736 116.736zM138.24 176.128c-31.744 0-58.368 26.624-58.368 58.368v493.568c0 31.744 26.624 58.368 58.368 58.368h744.448c31.744 0 58.368-26.624 58.368-58.368V234.496c0-31.744-26.624-58.368-58.368-58.368H138.24z" fill="#4C4C4C" p-id="7466"></path><path d="M775.168 413.696c-54.272 0-98.304-44.032-98.304-98.304s44.032-98.304 98.304-98.304 98.304 44.032 98.304 98.304-44.032 98.304-98.304 98.304z m0-139.264c-22.528 0-40.96 18.432-40.96 40.96s18.432 40.96 40.96 40.96 40.96-18.432 40.96-40.96-18.432-40.96-40.96-40.96z" fill="#FFA028" p-id="7467"></path></svg>