<?xml version="1.0" standalone="no"?><!DOCTYPE svg PUBLIC "-//W3C//DTD SVG 1.1//EN" "http://www.w3.org/Graphics/SVG/1.1/DTD/svg11.dtd"><svg t="1734804400873" class="icon" viewBox="0 0 1024 1024" version="1.1" xmlns="http://www.w3.org/2000/svg" p-id="11718" xmlns:xlink="http://www.w3.org/1999/xlink" width="64" height="64"><path d="M333.488 121.993L180.496 153.46l0.006-31.534z" fill="#52CE63" p-id="11719"></path><path d="M352.198 122.052l-171.769 35.265 0.067-3.857 152.992-31.467z" fill="#52CE63" p-id="11720"></path><path d="M370.932 121.911l-190.57 39.263 0.067-3.857 171.769-35.265z" fill="#52CD63" p-id="11721"></path><path d="M389.442 121.946l-208.946 43.11-0.134-3.882 190.57-39.263z" fill="#52CC62" p-id="11722"></path><path d="M408.152 122.005l-227.723 46.909 0.067-3.858 208.946-43.11z" fill="#52CB62" p-id="11723"></path><path d="M426.862 122.065l-246.5 50.706 0.067-3.857 227.723-46.909z" fill="#52CA62" p-id="11724"></path><path d="M445.597 121.924l-265.1 54.73-0.134-3.883 246.499-50.706z" fill="#52C961" p-id="11725"></path><path d="M464.307 121.983L180.43 180.51l0.066-3.857 265.1-54.73z" fill="#52C861" p-id="11726"></path><path d="M483.017 122.042l-302.654 62.326 0.067-3.858 283.877-58.527z" fill="#52C761" p-id="11727"></path><path d="M486.304 125.09l-305.807 63.16-0.134-3.882 302.654-62.326 3.456 0.018z" fill="#52C661" p-id="11728"></path><path d="M486.438 128.973L180.43 192.107l0.067-3.857 305.807-63.16z" fill="#52C560" p-id="11729"></path><path d="M486.371 132.83l-306.008 63.134 0.067-3.857 306.008-63.134z" fill="#52C460" p-id="11730"></path><path d="M486.305 136.688L180.32 199.62l0.042-3.657 306.008-63.134z" fill="#52C360" p-id="11731"></path><path d="M486.438 140.57l-305.983 62.933-0.134-3.882 305.984-62.933z" fill="#52C25F" p-id="11732"></path><path d="M486.372 144.427L180.388 207.36l0.067-3.858 305.983-62.934z" fill="#52C15F" p-id="11733"></path><path d="M486.305 148.284L180.32 211.218l0.067-3.857 305.984-62.934z" fill="#52C05F" p-id="11734"></path><path d="M486.439 152.166L180.455 215.1l-0.134-3.882 305.984-62.934z" fill="#52BF5E" p-id="11735"></path><path d="M486.397 155.823l-306.009 63.134 0.067-3.857 305.984-62.934z" fill="#52BE5E" p-id="11736"></path><path d="M486.33 159.68l-306.008 63.135 0.066-3.858 306.009-63.134z" fill="#52BD5E" p-id="11737"></path><path d="M486.463 163.562l-306.008 63.134-0.133-3.881L486.33 159.68z" fill="#52BC5E" p-id="11738"></path><path d="M486.397 167.42l-306.008 63.134 0.066-3.858 306.008-63.134z" fill="#52BB5D" p-id="11739"></path><path d="M486.33 171.277l-306.008 63.134 0.067-3.857 306.008-63.134z" fill="#52BA5D" p-id="11740"></path><path d="M486.464 175.159l-306.008 63.134-0.134-3.882 306.008-63.134z" fill="#52B95D" p-id="11741"></path><path d="M486.397 179.016L180.389 242.15l0.067-3.857 306.008-63.134z" fill="#51B75C" p-id="11742"></path><path d="M486.33 182.874l-306.008 63.134 0.067-3.858 306.008-63.134z" fill="#51B65C" p-id="11743"></path><path d="M486.464 186.756L180.48 249.689l-0.158-3.681 306.008-63.134z" fill="#51B55C" p-id="11744"></path><path d="M486.397 190.613l-305.983 62.934 0.066-3.858 305.984-62.933z" fill="#51B45B" p-id="11745"></path><path d="M486.33 194.47l-305.983 62.934 0.067-3.857 305.983-62.934z" fill="#51B35B" p-id="11746"></path><path d="M486.464 198.352l-305.983 62.934-0.134-3.882 305.984-62.934z" fill="#51B25B" p-id="11747"></path><path d="M486.398 202.21l-305.984 62.933 0.067-3.857 305.983-62.934z" fill="#51B15B" p-id="11748"></path><path d="M486.355 205.866l-306.008 63.135 0.067-3.858 305.984-62.933z" fill="#51B05A" p-id="11749"></path><path d="M486.49 209.748l-306.01 63.135-0.133-3.882 306.008-63.135z" fill="#51AF5A" p-id="11750"></path><path d="M486.422 213.606L180.414 276.74l0.067-3.857 306.008-63.135z" fill="#51AE5A" p-id="11751"></path><path d="M486.356 217.463l-306.009 63.134 0.067-3.857 306.008-63.134z" fill="#51AD59" p-id="11752"></path><path d="M486.49 221.345L180.48 284.479l-0.134-3.882 306.009-63.134z" fill="#51AC59" p-id="11753"></path><path d="M486.423 225.202l-306.009 63.135 0.067-3.858 306.008-63.134z" fill="#51AB59" p-id="11754"></path><path d="M486.356 229.06l-306.008 63.134 0.066-3.857 306.009-63.135z" fill="#51AA58" p-id="11755"></path><path d="M486.29 232.917l-305.784 62.958-0.158-3.681 306.008-63.134z" fill="#51A958" p-id="11756"></path><path d="M486.423 236.799l-305.984 62.934 0.067-3.858 305.783-62.958z" fill="#51A858" p-id="11757"></path><path d="M486.356 240.656L180.373 303.59l0.066-3.857 305.984-62.934z" fill="#51A758" p-id="11758"></path><path d="M486.29 244.514l-305.784 62.958-0.133-3.882 305.983-62.934z" fill="#51A657" p-id="11759"></path><path d="M486.423 248.396L180.44 311.329l0.066-3.857 305.783-62.958z" fill="#51A557" p-id="11760"></path><path d="M486.356 252.253l-305.983 62.934 0.067-3.858 305.983-62.933z" fill="#51A457" p-id="11761"></path><path d="M486.314 255.91l-305.807 63.159-0.134-3.882 305.983-62.934z" fill="#51A356" p-id="11762"></path><path d="M486.448 259.792L180.44 322.926l0.067-3.857 305.807-63.16z" fill="#51A256" p-id="11763"></path><path d="M180.44 322.926l306.008-63.134-0.085 282.377-305.996 0.066z" fill="#51A256" p-id="11764"></path><path d="M782.812 218.87l-6.33-31.295 6.311-0.038z m0.14 18.735l-10.328-50.096 3.858 0.066 6.33 31.295z" fill="#52CE63" p-id="11765"></path><path d="M782.893 256.315l-14.15-68.673 3.881-0.133 10.329 50.096z" fill="#52CD63" p-id="11766"></path><path d="M782.834 275.025l-17.949-87.45 3.857 0.067 14.151 68.673z" fill="#52CC62" p-id="11767"></path><path d="M782.775 293.735l-21.747-106.226 3.857 0.067 17.949 87.449z" fill="#52CB62" p-id="11768"></path><path d="M782.916 312.47l-25.77-124.827 3.882-0.134 21.747 106.226z" fill="#52CA62" p-id="11769"></path><path d="M782.88 330.979l-29.592-143.403 3.858 0.067 25.77 124.826z" fill="#52C961" p-id="11770"></path><path d="M782.822 349.689l-33.39-162.18 3.856 0.067 29.593 143.403z" fill="#52C861" p-id="11771"></path><path d="M782.963 368.424l-37.414-180.781 3.882-0.134 33.39 162.18z" fill="#52C761" p-id="11772"></path><path d="M782.903 387.134L741.893 187.6l3.656 0.042 37.414 180.78z" fill="#52C661" p-id="11773"></path><path d="M782.844 405.844l-44.81-218.31 3.858 0.067 41.011 199.533z" fill="#52C560" p-id="11774"></path><path d="M782.985 424.578l-48.832-236.91 3.882-0.134 44.809 218.31z" fill="#52C460" p-id="11775"></path><path d="M782.926 443.288l-52.63-255.687 3.857 0.067 48.832 236.91z" fill="#52C360" p-id="11776"></path><path d="M782.866 461.998l-56.428-274.464 3.858 0.067 52.63 255.687z" fill="#52C25F" p-id="11777"></path><path d="M782.807 480.708l-60.226-293.24 3.857 0.066 56.428 274.464z" fill="#52C15F" p-id="11778"></path><path d="M782.948 499.443l-64.249-311.842 3.882-0.133 60.226 293.24z" fill="#52C05F" p-id="11779"></path><path d="M782.889 518.153l-68.047-330.618 3.857 0.066 64.249 311.842z" fill="#52BF5E" p-id="11780"></path><path d="M782.83 536.863l-71.846-349.395 3.858 0.067 68.047 330.618z" fill="#52BE5E" p-id="11781"></path><path d="M782.97 555.598l-75.868-367.996 3.882-0.134 71.845 349.395z" fill="#52BD5E" p-id="11782"></path><path d="M780.836 564.694l-77.591-377.16 3.857 0.068 75.868 367.996-0.105 9.142z" fill="#52BC5E" p-id="11783"></path><path d="M776.979 564.628l-77.591-377.16 3.857 0.067 77.591 377.16z" fill="#52BB5D" p-id="11784"></path><path d="M773.297 564.786l-77.791-377.184 3.882-0.134 77.59 377.16z" fill="#52BA5D" p-id="11785"></path><path d="M769.44 564.72l-77.591-377.16 3.657 0.042 77.791 377.184z" fill="#52B95D" p-id="11786"></path><path d="M765.583 564.652L687.99 187.493l3.858 0.067 77.59 377.16z" fill="#51B75C" p-id="11787"></path><path d="M761.7 564.786l-77.59-377.16 3.881-0.133 77.592 377.16z" fill="#51B65C" p-id="11788"></path><path d="M757.843 564.72l-77.59-377.16 3.857 0.067 77.59 377.16z" fill="#51B55C" p-id="11789"></path><path d="M753.986 564.653l-77.591-377.16 3.857 0.067 77.591 377.16z" fill="#51B45B" p-id="11790"></path><path d="M750.104 564.786l-77.591-377.159 3.882-0.134 77.59 377.16z" fill="#51B35B" p-id="11791"></path><path d="M746.247 564.72l-77.591-377.16 3.857 0.067 77.591 377.16z" fill="#51B25B" p-id="11792"></path><path d="M742.39 564.653l-77.592-377.16 3.858 0.067 77.59 377.16z" fill="#51B15B" p-id="11793"></path><path d="M738.532 564.586l-77.616-376.959 3.882-0.133 77.591 377.159z" fill="#51B05A" p-id="11794"></path><path d="M734.65 564.72l-77.591-377.16 3.857 0.067 77.616 376.96z" fill="#51AF5A" p-id="11795"></path><path d="M730.793 564.653l-77.591-377.16 3.857 0.068L734.65 564.72z" fill="#51AE5A" p-id="11796"></path><path d="M726.935 564.586L649.32 187.627l3.882-0.133 77.59 377.16z" fill="#51AD59" p-id="11797"></path><path d="M723.254 564.745L645.462 187.56l3.858 0.066 77.615 376.96z" fill="#51AC59" p-id="11798"></path><path d="M719.396 564.678l-77.59-377.16 3.656 0.043 77.792 377.184z" fill="#51AB59" p-id="11799"></path><path d="M715.54 564.611l-77.617-376.959 3.882-0.133 77.591 377.159z" fill="#51AA58" p-id="11800"></path><path d="M711.657 564.745l-77.59-377.16 3.856 0.067 77.616 376.96z" fill="#51A958" p-id="11801"></path><path d="M707.8 564.678l-77.591-377.16 3.857 0.068 77.591 377.159z" fill="#51A858" p-id="11802"></path><path d="M703.943 564.612l-77.616-376.96 3.882-0.133 77.59 377.16z" fill="#51A758" p-id="11803"></path><path d="M700.06 564.745l-77.59-377.16 3.857 0.068 77.616 376.959z" fill="#51A657" p-id="11804"></path><path d="M696.203 564.679l-77.59-377.16 3.856 0.067 77.592 377.16z" fill="#51A557" p-id="11805"></path><path d="M692.346 564.612l-77.616-376.96 3.882-0.133 77.591 377.16z" fill="#51A457" p-id="11806"></path><path d="M688.464 564.746l-77.591-377.16 3.857 0.067 77.616 376.959z" fill="#51A356" p-id="11807"></path><path d="M684.607 564.679l-77.592-377.16 3.858 0.067 77.59 377.16zM607.015 187.52l77.592 377.159-255.327-0.02 0.13-377.178z" fill="#51A256" p-id="11808"></path><path d="M592.008 24.749L477.163 10.647l114.964-0.125z m0.06 4.483L440.144 10.578l37.02 0.07 114.844 14.1z" fill="#8AE99C" p-id="11809"></path><path d="M592.128 33.715L403.325 10.533l36.819 0.045 151.924 18.654z" fill="#89E99B" p-id="11810"></path><path d="M592.163 38.399L366.281 10.664l37.044-0.131 188.803 23.182z" fill="#88E89A" p-id="11811"></path><path d="M592.022 42.857L356.32 13.917l-0.007-3.256 9.968 0.003 225.882 27.735z" fill="#87E899" p-id="11812"></path><path d="M592.082 47.34L356.38 18.4l-0.06-4.483 235.702 28.94z" fill="#86E798" p-id="11813"></path><path d="M592.142 51.824L356.24 22.858l0.14-4.458 235.703 28.94z" fill="#85E797" p-id="11814"></path><path d="M592.177 56.507L356.274 27.542l-0.035-4.684 235.903 28.966z" fill="#84E696" p-id="11815"></path><path d="M592.037 60.966l-235.703-28.94-0.06-4.484 235.903 28.965z" fill="#83E695" p-id="11816"></path><path d="M592.097 65.45L356.394 36.508l-0.06-4.484 235.703 28.941z" fill="#82E594" p-id="11817"></path><path d="M592.132 70.133L356.23 41.168l0.165-4.66L592.097 65.45z" fill="#81E593" p-id="11818"></path><path d="M592.192 74.616L356.289 45.651l-0.06-4.483 235.903 28.965z" fill="#80E492" p-id="11819"></path><path d="M592.051 79.075L356.35 50.135l-0.06-4.484 235.903 28.965z" fill="#7FE491" p-id="11820"></path><path d="M592.111 83.558L356.41 54.618l-0.06-4.484 235.702 28.94z" fill="#7EE390" p-id="11821"></path><path d="M592.147 88.242L356.244 59.276l0.165-4.659L592.11 83.558z" fill="#7DE38F" p-id="11822"></path><path d="M592.206 92.725L356.303 63.76l-0.06-4.484 235.904 28.966z" fill="#7CE28E" p-id="11823"></path><path d="M592.066 97.184L356.363 68.243l-0.06-4.483 235.903 28.965z" fill="#7BE28D" p-id="11824"></path><path d="M592.101 101.867L356.198 72.902l0.165-4.66 235.703 28.942z" fill="#7AE18C" p-id="11825"></path><path d="M592.161 106.35L356.258 77.385l-0.06-4.483 235.903 28.965z" fill="#79E18B" p-id="11826"></path><path d="M592.02 110.809l-235.702-28.94-0.06-4.484 235.903 28.965z" fill="#78E08A" p-id="11827"></path><path d="M592.08 115.292l-235.702-28.94-0.06-4.484L592.02 110.81z" fill="#77E089" p-id="11828"></path><path d="M592.116 119.976L356.213 91.01l0.165-4.66 235.702 28.941z" fill="#76DF88" p-id="11829"></path><path d="M592.175 124.46L356.272 95.493l-0.06-4.483 235.904 28.965z" fill="#75DF87" p-id="11830"></path><path d="M592.035 128.918l-235.703-28.94-0.06-4.484 235.903 28.965z" fill="#74DE86" p-id="11831"></path><path d="M592.07 133.601l-235.702-28.94-0.036-4.684 235.703 28.94z" fill="#73DE85" p-id="11832"></path><path d="M592.13 138.085l-235.903-28.966 0.14-4.458L592.07 133.6z" fill="#72DD84" p-id="11833"></path><path d="M592.19 142.568l-235.903-28.965-0.06-4.484 235.903 28.966z" fill="#71DD83" p-id="11834"></path><path d="M592.05 147.026l-235.703-28.94-0.06-4.483 235.903 28.965z" fill="#70DC82" p-id="11835"></path><path d="M592.085 151.71l-235.703-28.94-0.035-4.684 235.702 28.94z" fill="#6FDC81" p-id="11836"></path><path d="M592.145 156.193l-235.903-28.965 0.14-4.458 235.703 28.94z" fill="#6EDC80" p-id="11837"></path><path d="M592.204 160.677L356.301 131.71l-0.06-4.483 235.904 28.965z" fill="#6DDB7E" p-id="11838"></path><path d="M592.04 165.336l-235.703-28.941-0.036-4.684 235.903 28.966z" fill="#6CDB7D" p-id="11839"></path><path d="M592.1 169.819l-235.703-28.94-0.06-4.484 235.702 28.94z" fill="#6BDA7C" p-id="11840"></path><path d="M592.159 174.302l-235.903-28.965 0.14-4.459 235.703 28.94z" fill="#6ADA7B" p-id="11841"></path><path d="M591.994 178.961l-235.703-28.94-0.035-4.684 235.903 28.965z" fill="#69D97A" p-id="11842"></path><path d="M592.054 183.444l-235.703-28.94-0.06-4.483 235.703 28.94z" fill="#68D979" p-id="11843"></path><path d="M592.114 187.928L356.21 158.962l0.14-4.458 235.703 28.94z" fill="#67D878" p-id="11844"></path><path d="M592.173 192.41L356.27 163.447l-0.06-4.484 235.904 28.966z" fill="#66D877" p-id="11845"></path><path d="M592.008 197.07l-235.702-28.94-0.036-4.684 235.903 28.965z" fill="#65D776" p-id="11846"></path><path d="M592.068 201.553l-235.702-28.94-0.06-4.484 235.702 28.94z" fill="#64D775" p-id="11847"></path><path d="M592.128 206.036l-235.903-28.965 0.14-4.458 235.703 28.94z" fill="#63D674" p-id="11848"></path><path d="M592.163 210.72L356.26 181.755l-0.035-4.684 235.903 28.965z" fill="#62D673" p-id="11849"></path><path d="M592.023 215.179L356.32 186.238l-0.06-4.483 235.903 28.965z" fill="#61D572" p-id="11850"></path><path d="M592.083 219.662l-235.703-28.94-0.06-4.484 235.703 28.94z" fill="#60D571" p-id="11851"></path><path d="M592.143 224.145L356.239 195.18l0.141-4.459 235.703 28.94z" fill="#5FD470" p-id="11852"></path><path d="M592.178 228.829l-235.903-28.965-0.036-4.684 235.904 28.965z" fill="#5ED46F" p-id="11853"></path><path d="M592.037 233.287l-235.702-28.94-0.06-4.483 235.903 28.965z" fill="#5DD36E" p-id="11854"></path><path d="M592.097 237.77l-235.702-28.94-0.06-4.483 235.702 28.94z" fill="#5CD36D" p-id="11855"></path><path d="M592.132 242.454L356.23 213.49l0.166-4.659 235.702 28.94z" fill="#5BD26C" p-id="11856"></path><path d="M592.192 246.938L356.29 217.972l-0.06-4.483 235.903 28.965z" fill="#5AD26B" p-id="11857"></path><path d="M592.052 251.396l-235.703-28.94-0.06-4.484 235.903 28.966z" fill="#59D16A" p-id="11858"></path><path d="M592.112 255.88l-235.703-28.941-0.06-4.484 235.703 28.941z" fill="#58D169" p-id="11859"></path><path d="M592.147 260.563l-235.903-28.965 0.165-4.66 235.703 28.941z" fill="#57D068" p-id="11860"></path><path d="M592.006 265.022L356.304 236.08l-0.06-4.483 235.903 28.965z" fill="#56D067" p-id="11861"></path><path d="M592.066 269.505l-235.702-28.94-0.06-4.484 235.702 28.94z" fill="#55CF66" p-id="11862"></path><path d="M592.101 274.189l-235.903-28.966 0.166-4.659 235.702 28.94z" fill="#54CF65" p-id="11863"></path><path d="M592.161 278.672l-235.903-28.965-0.06-4.484 235.903 28.966z" fill="#53CE64" p-id="11864"></path><path d="M592.02 283.13l-235.702-28.94-0.06-4.483 235.903 28.965z m-235.702-28.94l235.703 28.94 0.053 173.549-235.79-0.062z" fill="#52CE63" p-id="11865"></path><path d="M735.012 447.483l-607.817-55.33v-89.052h607.817z" fill="#FFE56C" p-id="11866"></path><path d="M735.012 458.589l-607.817-55.33v-11.106l607.817 55.33z" fill="#FFE56C" p-id="11867"></path><path d="M735.012 469.897l-607.817-55.33V403.26l607.817 55.33z" fill="#FFE46B" p-id="11868"></path><path d="M735.012 481.003l-607.817-55.33v-11.105l607.817 55.33z" fill="#FFE46A" p-id="11869"></path><path d="M735.012 492.11l-607.817-55.33v-11.106l607.817 55.33z" fill="#FFE369" p-id="11870"></path><path d="M735.012 503.418l-607.817-55.33V436.78l607.817 55.33z" fill="#FFE268" p-id="11871"></path><path d="M735.012 514.524l-607.817-55.33v-11.106l607.817 55.33z" fill="#FFE267" p-id="11872"></path><path d="M735.012 525.63L127.195 470.3v-11.105l607.817 55.33z" fill="#FFE166" p-id="11873"></path><path d="M735.012 536.939l-607.817-55.33v-11.308l607.817 55.33z" fill="#FFE165" p-id="11874"></path><path d="M735.012 548.045l-607.817-55.33V481.61l607.817 55.33z" fill="#FFE064" p-id="11875"></path><path d="M735.012 559.151l-607.817-55.33v-11.106l607.817 55.33z" fill="#FFDF63" p-id="11876"></path><path d="M735.012 570.46l-607.817-55.33v-11.308l607.817 55.33z" fill="#FFDF62" p-id="11877"></path><path d="M735.012 581.566l-607.817-55.33V515.13l607.817 55.33z" fill="#FFDE61" p-id="11878"></path><path d="M735.012 592.672l-607.817-55.33v-11.106l607.817 55.33z" fill="#FFDD60" p-id="11879"></path><path d="M735.012 603.98l-607.817-55.33v-11.307l607.817 55.33z" fill="#FFDD5F" p-id="11880"></path><path d="M735.012 615.087l-607.817-55.33v-11.106l607.817 55.33z" fill="#FFDC5E" p-id="11881"></path><path d="M735.012 626.193l-607.817-55.33v-11.106l607.817 55.33z" fill="#FFDC5D" p-id="11882"></path><path d="M735.012 637.501l-607.817-55.33v-11.308l607.817 55.33z" fill="#FFDB5C" p-id="11883"></path><path d="M735.012 648.607l-607.817-55.33v-11.105l607.817 55.33z" fill="#FFDA5B" p-id="11884"></path><path d="M735.012 659.714l-607.817-55.33v-11.106l607.817 55.33z" fill="#FFDA5A" p-id="11885"></path><path d="M735.012 671.022l-607.817-55.33v-11.308l607.817 55.33z" fill="#FFD959" p-id="11886"></path><path d="M735.012 682.128l-607.817-55.33v-11.106l607.817 55.33z" fill="#FFD858" p-id="11887"></path><path d="M735.012 693.234l-607.817-55.33V626.8l607.817 55.33z" fill="#FFD857" p-id="11888"></path><path d="M735.012 704.543l-607.817-55.33v-11.308l607.817 55.33z" fill="#FFD756" p-id="11889"></path><path d="M735.012 715.649l-607.817-55.33v-11.106l607.817 55.33z" fill="#FFD655" p-id="11890"></path><path d="M735.012 726.755l-607.817-55.33V660.32l607.817 55.33z" fill="#FFD654" p-id="11891"></path><path d="M735.012 738.063l-607.817-55.329v-11.308l607.817 55.33z" fill="#FFD552" p-id="11892"></path><path d="M735.012 749.17l-607.817-55.33v-11.106l607.817 55.33z" fill="#FFD551" p-id="11893"></path><path d="M735.012 760.478l-607.817-55.531V693.84l607.817 55.33z" fill="#FFD450" p-id="11894"></path><path d="M735.012 771.584l-607.817-55.33v-11.307l607.817 55.531z" fill="#FFD34F" p-id="11895"></path><path d="M735.012 782.69l-607.817-55.329v-11.106l607.817 55.33z" fill="#FFD34E" p-id="11896"></path><path d="M735.012 793.999l-607.817-55.532v-11.106l607.817 55.33z" fill="#FFD24D" p-id="11897"></path><path d="M735.012 805.105l-607.817-55.33v-11.308L735.012 794z" fill="#FFD14C" p-id="11898"></path><path d="M735.012 816.211l-607.817-55.33v-11.105l607.817 55.33z" fill="#FFD14B" p-id="11899"></path><path d="M735.012 827.52l-607.817-55.532v-11.106l607.817 55.33z" fill="#FFD04A" p-id="11900"></path><path d="M735.012 838.626l-607.817-55.33v-11.308l607.817 55.532z" fill="#FFCF49" p-id="11901"></path><path d="M735.012 849.732l-607.817-55.33v-11.106l607.817 55.33z" fill="#FFCF48" p-id="11902"></path><path d="M735.012 861.04L127.195 805.51v-11.106l607.817 55.33z" fill="#FFCE47" p-id="11903"></path><path d="M735.012 872.147l-607.817-55.33V805.51l607.817 55.531z" fill="#FFCE46" p-id="11904"></path><path d="M735.012 883.253l-607.817-55.33v-11.106l607.817 55.33z" fill="#FFCD45" p-id="11905"></path><path d="M735.012 894.561L127.195 839.03v-11.107l607.817 55.33z" fill="#FFCC44" p-id="11906"></path><path d="M735.012 905.668l-607.817-55.33V839.03l607.817 55.531z" fill="#FFCC43" p-id="11907"></path><path d="M735.012 916.774l-607.817-55.33v-11.106l607.817 55.33z" fill="#FFCB42" p-id="11908"></path><path d="M735.012 928.082l-607.817-55.531v-11.107l607.817 55.33z" fill="#FFCA41" p-id="11909"></path><path d="M735.012 939.188l-607.817-55.33v-11.307l607.817 55.531z" fill="#FFCA40" p-id="11910"></path><path d="M735.012 950.295l-607.817-55.33V883.86l607.817 55.33z" fill="#FFC93F" p-id="11911"></path><path d="M735.012 961.603L127.195 906.07v-11.106l607.817 55.33z" fill="#FFC93E" p-id="11912"></path><path d="M735.012 972.71l-607.817-55.33V906.07l607.817 55.532z" fill="#FFC83D" p-id="11913"></path><path d="M643.537 975.536l-516.342-47.05V917.38l607.817 55.33v2.826z" fill="#FFC73C" p-id="11914"></path><path d="M520.963 975.536l-393.768-35.944v-11.106l516.342 47.05z" fill="#FFC73B" p-id="11915"></path><path d="M398.188 975.536L127.195 950.9v-11.308l393.768 35.944z" fill="#FFC63A" p-id="11916"></path><path d="M127.195 950.9l270.993 24.636H127.195z" fill="#FFC63A" p-id="11917"></path><path d="M541.157 640.328a43.416 20.193 0 1 0 86.83 0 43.416 20.193 0 1 0-86.83 0zM263.038 648.311a43.416 20.193 7.002 1 0 4.923-40.085 43.416 20.193 7.002 1 0-4.923 40.085z" fill="#EAADCC" p-id="11918"></path><path d="M421.362 652.642c-2.827 0.099-5.666-0.206-8.505-0.513-18.867-2.169-33.087-10.157-42.46-23.975-1.915-2.763-1.04-6.632 1.728-8.344s6.631-1.04 8.346 1.728c7.25 10.86 18.372 16.938 33.787 18.623 15.624 1.878 28.824-2.02 40.81-11.733 2.553-2.108 6.408-1.635 8.518 0.917s1.638 6.41-0.914 8.518c-12.181 9.923-25.953 14.848-41.31 14.779zM290.728 528.09a43.359 43.359 0 0 1 31.118 11.643 43.359 43.359 0 0 1 13.786 30.23 43.359 43.359 0 0 1-11.644 31.12 43.359 43.359 0 0 1-30.229 13.785 43.359 43.359 0 0 1-31.12-11.643 43.359 43.359 0 0 1-13.786-30.23 43.359 43.359 0 0 1 11.644-31.121 43.359 43.359 0 0 1 30.229-13.784z" p-id="11919"></path><path d="M293.006 564.381a14.048 14.048 0 0 0-14.62-13.634c-7.871 0.274-13.91 6.748-13.635 14.62s6.749 13.909 14.62 13.632a14.048 14.048 0 0 0 13.635-14.62z" fill="#FFFFFF" p-id="11920"></path><path d="M553.784 539.11a43.359 43.359 0 0 1 31.12 11.64 43.359 43.359 0 0 1 13.785 30.232 43.359 43.359 0 0 1-11.643 31.12 43.359 43.359 0 0 1-30.23 13.786 43.359 43.359 0 0 1-31.12-11.643 43.359 43.359 0 0 1-13.785-30.232 43.359 43.359 0 0 1 11.643-31.118 43.359 43.359 0 0 1 30.23-13.786z" p-id="11921"></path><path d="M329.578 570.177c0.719 20.583-15.448 37.917-36.031 38.636-20.585 0.718-37.92-15.446-38.64-36.031-0.719-20.583 15.448-37.92 36.031-38.638 20.585-0.719 37.921 15.448 38.64 36.03z m12.108-0.424c-0.951-27.245-23.925-48.67-51.17-47.717-27.245 0.95-48.668 23.925-47.717 51.17 0.951 27.244 23.925 48.666 51.17 47.716 27.245-0.95 48.668-23.927 47.717-51.17z" fill="#FFFFFF" p-id="11922"></path><path d="M292.259 624.012c-13.334 0.06-26.035-4.95-35.853-14.103-10.234-9.543-16.14-22.471-16.634-36.598-0.486-13.926 4.497-27.435 14.04-37.669 9.544-10.234 22.472-16.14 36.599-16.633 28.856-1.01 53.294 21.779 54.302 50.637 0.484 13.925-4.497 27.434-14.04 37.668-9.544 10.234-22.472 16.143-36.599 16.635l-1.817 0.063z m-0.023-99.008l-1.615 0.059c-12.31 0.43-23.846 5.682-32.422 14.67-8.374 8.98-12.809 20.854-12.373 33.366 0.43 12.312 5.683 23.848 14.67 32.424 8.98 8.374 20.854 12.809 33.368 12.372 12.31-0.43 23.846-5.682 32.422-14.67 8.374-8.982 12.809-20.856 12.373-33.367-0.875-25.024-21.573-44.91-46.425-44.852z m0.002 86.886c-21.62-0.053-39.596-17.205-40.358-39.001-0.373-10.697 3.506-21.137 10.913-28.873 7.403-7.936 17.346-12.525 28.04-12.899 22.198-0.775 40.996 16.752 41.772 38.953 0.775 22.198-16.755 40.996-38.953 41.772l-1.414 0.048z m0.017-74.762l-1.212 0.043c-9.08 0.317-17.63 4.253-23.864 10.937-6.232 6.684-9.562 15.488-9.245 24.569 0.663 18.97 16.536 33.77 35.506 33.109 18.972-0.663 33.773-16.535 33.11-35.506-0.647-18.566-15.91-33.188-34.295-33.152z m300.38 44.066c0.717 20.585-15.447 37.92-36.032 38.638-20.583 0.719-37.92-15.446-38.638-36.03-0.72-20.584 15.448-37.92 36.03-38.639 20.586-0.718 37.921 15.448 38.64 36.031z m12.108-0.424c-0.95-27.243-23.925-48.666-51.17-47.717-27.244 0.954-48.667 23.927-47.716 51.17 0.949 27.247 23.925 48.67 51.17 47.717 27.244-0.95 48.667-23.925 47.716-51.17z" fill="#FFFFFF" p-id="11923"></path><path d="M555.316 635.031c-13.333 0.061-26.037-4.949-35.853-14.103-10.234-9.543-16.14-22.47-16.633-36.598-1.01-28.858 21.778-53.294 50.637-54.301 28.86-1.01 53.296 21.778 54.303 50.636 0.485 13.925-4.497 27.435-14.04 37.669s-22.471 16.142-36.598 16.635l-1.818 0.062z m-0.022-99.007l-1.615 0.058c-25.63 0.895-45.69 22.407-44.795 48.036 0.43 12.312 5.682 23.848 14.67 32.425 8.98 8.374 20.854 12.808 33.366 12.372 25.63-0.897 45.69-22.409 44.796-48.038-0.874-25.023-21.572-44.91-46.424-44.851z m0.002 86.885c-21.62-0.052-39.599-17.204-40.358-39-0.374-10.697 3.505-21.137 10.912-28.873 7.401-7.936 17.344-12.526 28.04-12.9 22.199-0.775 40.997 16.753 41.772 38.953 0.774 22.199-16.754 40.997-38.952 41.772l-1.414 0.048z m0.016-74.761l-1.211 0.042c-9.081 0.317-17.631 4.253-23.865 10.937-6.231 6.684-9.561 15.488-9.244 24.57 0.662 18.969 16.536 33.77 35.506 33.108 18.97-0.662 33.77-16.534 33.108-35.506-0.646-18.565-15.908-33.187-34.294-33.151z" fill="#FFFFFF" p-id="11924"></path><path d="M556.061 575.399c-0.274-7.87-6.748-13.907-14.62-13.633s-13.907 6.749-13.632 14.62a14.048 14.048 0 0 0 14.62 13.633 14.048 14.048 0 0 0 13.632-14.62z" fill="#FFFFFF" p-id="11925"></path><path d="M350.33 892.744c-2.827 0-5.856-1.212-8.077-3.433l-149.43-155.488c-4.24-4.443-4.039-11.51 0.404-15.75 4.442-4.241 11.51-4.04 15.75 0.403l149.43 155.488c4.241 4.443 4.04 11.51-0.403 15.75-2.221 2.02-4.846 3.03-7.674 3.03z" fill="#ECB732" p-id="11926"></path><path d="M235.229 856.396c-2.827 0-5.452-1.01-7.674-3.029-4.442-4.24-4.644-11.308-0.403-15.75L322.06 736.65c4.24-4.443 11.308-4.644 15.75-0.404 4.443 4.24 4.645 11.308 0.404 15.75l-94.908 100.967c-2.221 2.221-5.048 3.433-8.077 3.433z m274.628 36.348c-2.827 0-5.452-1.01-7.673-3.03-4.443-4.24-4.645-11.307-0.404-15.75l149.43-155.488c4.24-4.442 11.308-4.644 15.75-0.404 4.443 4.24 4.645 11.308 0.405 15.75l-149.43 155.489c-2.222 2.221-5.25 3.433-8.078 3.433z" fill="#ECB732" p-id="11927"></path><path d="M624.959 856.396c-3.03 0-5.856-1.212-8.078-3.433l-94.908-100.966c-4.24-4.443-4.039-11.51 0.404-15.75 4.442-4.241 11.51-4.04 15.75 0.403l94.909 100.966c4.24 4.443 4.039 11.51-0.404 15.751-2.221 2.02-4.846 3.029-7.673 3.029z" fill="#ECB732" p-id="11928"></path><path d="M392.736 492.917c-2.827 0-5.654-1.01-7.875-3.23-4.24-4.241-4.24-11.309 0-15.751l98.947-98.947c4.24-4.24 11.308-4.24 15.75 0 4.241 4.24 4.241 11.308 0 15.75l-98.946 98.947c-2.222 2.222-5.049 3.231-7.876 3.231z" fill="#FFC73B" p-id="11929"></path><path d="M471.49 492.917c-2.827 0-5.654-1.01-7.875-3.23l-98.947-98.948c-4.24-4.24-4.24-11.308 0-15.75 4.24-4.24 11.308-4.24 15.75 0l98.947 98.947c4.24 4.24 4.24 11.308 0 15.75-2.22 2.222-5.048 3.231-7.875 3.231z" fill="#FFC73B" p-id="11930"></path></svg>