<?xml version="1.0" standalone="no"?><!DOCTYPE svg PUBLIC "-//W3C//DTD SVG 1.1//EN" "http://www.w3.org/Graphics/SVG/1.1/DTD/svg11.dtd"><svg t="1694575050469" class="icon" viewBox="0 0 1024 1024" version="1.1" xmlns="http://www.w3.org/2000/svg" p-id="1895" xmlns:xlink="http://www.w3.org/1999/xlink" width="200" height="200"><path d="M360.78705283 62H180.19197178A118.32264844 118.32264844 0 0 0 62 180.19197178v180.59508105a118.31259638 118.31259638 0 0 0 118.19197177 118.15176358h298.74684464v-298.74684463A118.32264844 118.32264844 0 0 0 360.78705283 62z m63.63951152 362.42656435h-244.26474872a63.70987588 63.70987588 0 0 1-63.63951152-63.63951152V180.19197178a63.70987588 63.70987588 0 0 1 63.63951152-63.63951152h180.6252372a63.70987588 63.70987588 0 0 1 63.63951152 63.63951151zM62 663.21294717v180.61518515a118.32264844 118.32264844 0 0 0 118.19197177 118.17186768h180.59508106a118.32264844 118.32264844 0 0 0 118.15176358-118.17186768V545.03102744h-298.74684463A118.31259638 118.31259638 0 0 0 62 663.21294717z m362.42656435 180.61518515a63.70987588 63.70987588 0 0 1-63.63951152 63.63951153H180.19197178a63.70987588 63.70987588 0 0 1-63.63951152-63.63951153V663.21294717a63.70987588 63.70987588 0 0 1 63.63951151-63.64956358h244.26474874zM843.82813232 62H663.21294717a118.32264844 118.32264844 0 0 0-118.19197178 118.19197177v298.74684464h298.80715693a118.31259638 118.31259638 0 0 0 118.16181563-118.15176358V180.19197178A118.31259638 118.31259638 0 0 0 843.82813232 62z m63.63951153 298.78705283a63.71992792 63.71992792 0 0 1-63.63951153 63.63951152h-244.26474873v-244.26474872a63.70987588 63.70987588 0 0 1 63.63951153-63.63951152h180.6252372a63.71992792 63.71992792 0 0 1 63.63951153 63.63951152zM843.82813232 545.03102744H545.02097539v298.79710488A118.32264844 118.32264844 0 0 0 663.21294717 962h180.61518515a118.31259638 118.31259638 0 0 0 118.16181563-118.17186768V663.21294717a118.31259638 118.31259638 0 0 0-118.16181563-118.18191973z m63.61940742 298.79710488a63.71992792 63.71992792 0 0 1-63.61940742 63.61940742H663.21294717a63.70987588 63.70987588 0 0 1-63.64956358-63.61940742v-244.26474873h244.26474873a63.71992792 63.71992792 0 0 1 63.63951153 63.63951153z" fill="#2c2c2c" p-id="1896"></path></svg>