<?xml version="1.0" standalone="no"?><!DOCTYPE svg PUBLIC "-//W3C//DTD SVG 1.1//EN" "http://www.w3.org/Graphics/SVG/1.1/DTD/svg11.dtd"><svg t="1724356944159" class="icon" viewBox="0 0 1024 1024" version="1.1" xmlns="http://www.w3.org/2000/svg" p-id="7946" xmlns:xlink="http://www.w3.org/1999/xlink" width="64" height="64"><path d="M762 896.5H160c-17.7 0-32-14.3-32-32v-410c0-17.7 14.3-32 32-32h98.7l52.6-0.4c22-19.3 85.1-81.4 97.8-168.3l0.9-14.5c0.5-61.3 46.1-111 102-111 56.2 0 102 50.2 102 112v19c0 1.5-0.1 3-0.3 4.5-9.7 68.8-26.8 123.2-40.5 158.8H864c9.8 0 19.1 4.5 25.2 12.3 6.1 7.8 8.2 17.9 5.8 27.4l-102 410c-3.5 14.2-16.3 24.2-31 24.2z m-570-64h545l86.1-346H552.5l-28.8-0.2c-11.3-0.1-21.7-6.1-27.4-15.9-5.7-9.7-5.8-21.7-0.4-31.6 0.4-0.7 38-70.2 54-181.8v-16.7c0-26-17.4-48-38-48s-38 22-38 48c0 0.6 0 1.3-0.1 1.9l-1 16.7c-0.1 0.9-0.1 1.7-0.3 2.5C453.9 394 346.6 476.1 342.1 479.5c-5.5 4.1-12.1 6.4-19 6.4l-64.2 0.5H192v346.1z" p-id="7947"></path><path d="M302 894c-17.7 0-32-14.3-32-32V486c0-17.7 14.3-32 32-32s32 14.3 32 32v376c0 17.7-14.3 32-32 32z" p-id="7948"></path></svg>