<?xml version="1.0" standalone="no"?><!DOCTYPE svg PUBLIC "-//W3C//DTD SVG 1.1//EN" "http://www.w3.org/Graphics/SVG/1.1/DTD/svg11.dtd"><svg t="1724354232357" class="icon" viewBox="0 0 1024 1024" version="1.1" xmlns="http://www.w3.org/2000/svg" p-id="3298" xmlns:xlink="http://www.w3.org/1999/xlink" width="64" height="64"><path d="M515.995326 312.369858c-110.406951 0-199.910112 89.503161-199.910112 199.910112s89.503161 199.910112 199.910112 199.910112 199.910112-89.503161 199.910112-199.910112S626.402277 312.369858 515.995326 312.369858zM515.995326 642.676974c-72.016539 0-130.397004-58.380464-130.397004-130.397004s58.380464-130.397004 130.397004-130.397004 130.397004 58.380464 130.397004 130.397004S588.010906 642.676974 515.995326 642.676974z" p-id="3299"></path><path d="M472.569288 216.609558c0 23.961408 19.42436 43.385768 43.385768 43.385768s43.385768-19.42436 43.385768-43.385768c0-0.280929-0.0163-0.558981-0.021094-0.838951l0.061363 0L559.381094 93.842697l-0.052734 0c-0.27997-23.720749-19.585438-42.866097-43.372345-42.866097s-43.093333 19.145348-43.372345 42.866097l-0.052734 0 0 121.92791 0.061363 0C472.585588 216.050577 472.569288 216.32767 472.569288 216.609558z" p-id="3300"></path><path d="M515.955056 764.324914c-23.786906 0-43.093333 19.145348-43.372345 42.866097l-0.052734 0 0 121.92791 0.061363 0c-0.005753 0.27997-0.021094 0.558022-0.021094 0.838951 0 23.961408 19.42436 43.385768 43.385768 43.385768s43.385768-19.42436 43.385768-43.385768c0-0.280929-0.0163-0.558981-0.021094-0.838951l0.061363 0L559.382052 807.191011l-0.052734 0C559.04839 783.470262 539.741963 764.324914 515.955056 764.324914z" p-id="3301"></path><path d="M218.606742 555.585199l0-0.061363c0.27997 0.005753 0.558022 0.021094 0.838951 0.021094 23.961408 0 43.385768-19.42436 43.385768-43.385768s-19.42436-43.385768-43.385768-43.385768c-0.280929 0-0.558981 0.0163-0.838951 0.021094l0-0.061363L96.678831 468.733124l0 0.052734c-23.720749 0.27997-42.866097 19.585438-42.866097 43.372345s19.145348 43.093333 42.866097 43.372345l0 0.052734L218.606742 555.583281z" p-id="3302"></path><path d="M932.794007 468.774352c-0.280929 0-0.558981 0.0163-0.838951 0.021094l0-0.061363L810.027146 468.734082l0 0.052734c-23.720749 0.27997-42.866097 19.585438-42.866097 43.372345s19.145348 43.093333 42.866097 43.372345l0 0.052734L931.955056 555.58424l0-0.061363c0.27997 0.005753 0.558022 0.021094 0.838951 0.021094 23.961408 0 43.385768-19.42436 43.385768-43.385768S956.755416 468.774352 932.794007 468.774352z" p-id="3303"></path><path d="M263.826697 702.931895c-0.199431 0.199431-0.383521 0.406532-0.578157 0.60788l-0.043146-0.043146-86.215431 86.215431 0.037393 0.037393c-16.57576 16.970787-16.461663 44.160479 0.357633 60.979775 16.820255 16.820255 44.008989 16.933393 60.979775 0.357633l0.037393 0.037393 86.215431-86.215431-0.043146-0.043146c0.201348-0.194637 0.409408-0.379685 0.60788-0.578157 16.942981-16.942981 16.942981-44.413603 0-61.356584C308.2403 685.988914 280.769678 685.988914 263.826697 702.931895z" p-id="3304"></path><path d="M712.47964 316.594337c16.820255 16.820255 44.008989 16.933393 60.979775 0.357633l0.037393 0.037393 86.215431-86.215431-0.043146-0.043146c0.202307-0.194637 0.409408-0.379685 0.60788-0.578157 16.942981-16.942981 16.942981-44.413603 0-61.356584-16.942981-16.942981-44.413603-16.942981-61.356584 0-0.199431 0.199431-0.383521 0.406532-0.578157 0.60788l-0.043146-0.043146-86.215431 86.215431 0.037393 0.037393C695.546247 272.58439 695.659386 299.774082 712.47964 316.594337z" p-id="3305"></path><path d="M175.071401 231.72794l86.215431 86.215431 0.043146-0.043146c0.194637 0.201348 0.379685 0.409408 0.578157 0.60788 16.942981 16.942981 44.413603 16.942981 61.356584 0 16.942981-16.942981 16.942981-44.413603 0-61.356584-0.199431-0.199431-0.406532-0.383521-0.60788-0.578157l0.043146-0.043146-86.215431-86.215431-0.037393 0.037393c-16.970787-16.57576-44.160479-16.461663-60.979775 0.357633-16.820255 16.820255-16.933393 44.008989-0.357633 60.979775L175.071401 231.72794z" p-id="3306"></path><path d="M856.792689 791.668974l0.043146-0.043146-86.215431-86.215431-0.037393 0.037393c-16.970787-16.57576-44.160479-16.461663-60.979775 0.357633-16.820255 16.820255-16.933393 44.008989-0.357633 60.980734l-0.037393 0.037393 86.215431 86.215431 0.043146-0.043146c0.194637 0.202307 0.379685 0.409408 0.578157 0.60788 16.942981 16.942981 44.413603 16.942981 61.356584 0 16.942981-16.942981 16.942981-44.413603 0-61.356584C857.202097 792.048659 856.994996 791.86361 856.792689 791.668974z" p-id="3307"></path></svg>