<?xml version="1.0" standalone="no"?><!DOCTYPE svg PUBLIC "-//W3C//DTD SVG 1.1//EN" "http://www.w3.org/Graphics/SVG/1.1/DTD/svg11.dtd"><svg t="1694519247871" class="icon" viewBox="0 0 1024 1024" version="1.1" xmlns="http://www.w3.org/2000/svg" p-id="15500" xmlns:xlink="http://www.w3.org/1999/xlink" width="200" height="200"><path d="M172.76 924.37V816.8c0-19.8 16.05-35.86 35.86-35.86 19.8 0 35.86 16.05 35.86 35.86v107.57c0 19.8-16.05 35.86-35.86 35.86-19.81-0.01-35.86-16.06-35.86-35.86zM172.76 601.67V494.1c0-19.8 16.05-35.86 35.86-35.86 19.8 0 35.86 16.05 35.86 35.86v107.57c0 19.8-16.05 35.86-35.86 35.86-19.81-0.01-35.86-16.06-35.86-35.86zM172.76 207.26V99.69c0-19.8 16.05-35.86 35.86-35.86 19.8 0 35.86 16.05 35.86 35.86v107.57c0 19.8-16.05 35.86-35.86 35.86-19.81-0.01-35.86-16.06-35.86-35.86z" p-id="15501" fill="#2c2c2c"></path><path d="M352.04 350.68c0 79.21-64.21 143.42-143.42 143.42S65.19 429.89 65.19 350.68s64.21-143.42 143.42-143.42 143.43 64.21 143.43 143.42z m-143.42-71.71c-39.6 0-71.71 32.11-71.71 71.71s32.11 71.71 71.71 71.71 71.71-32.11 71.71-71.71-32.11-71.71-71.71-71.71zM352.04 709.23c0 79.21-64.21 143.42-143.42 143.42S65.19 788.44 65.19 709.23s64.21-143.42 143.42-143.42 143.43 64.21 143.43 143.42z m-143.42-71.71c-39.6 0-71.71 32.11-71.71 71.71 0 39.61 32.11 71.71 71.71 71.71s71.71-32.11 71.71-71.71c0-39.6-32.11-71.71-71.71-71.71zM925.73 350.68H423.75c-19.8 0-35.86-16.05-35.86-35.86 0-19.8 16.05-35.86 35.86-35.86h501.98c19.8 0 35.86 16.05 35.86 35.86-0.01 19.81-16.06 35.86-35.86 35.86zM640.93 458.24H421.7c-18.67 0-33.8-15.13-33.8-33.8v-4.1c0-18.67 15.14-33.8 33.8-33.8h219.23c18.67 0 33.8 15.13 33.8 33.8v4.1c0.01 18.67-15.13 33.8-33.8 33.8zM925.73 709.23H423.75c-19.8 0-35.86-16.05-35.86-35.86 0-19.8 16.05-35.86 35.86-35.86h501.98c19.8 0 35.86 16.05 35.86 35.86-0.01 19.81-16.06 35.86-35.86 35.86zM640.93 816.8H421.7c-18.67 0-33.8-15.13-33.8-33.8v-4.1c0-18.67 15.14-33.8 33.8-33.8h219.23c18.67 0 33.8 15.14 33.8 33.8v4.1c0.01 18.67-15.13 33.8-33.8 33.8z" p-id="15502" fill="#2c2c2c"></path></svg>