<?xml version="1.0" standalone="no"?><!DOCTYPE svg PUBLIC "-//W3C//DTD SVG 1.1//EN" "http://www.w3.org/Graphics/SVG/1.1/DTD/svg11.dtd"><svg t="1711110461177" class="icon" viewBox="0 0 1024 1024" version="1.1" xmlns="http://www.w3.org/2000/svg" p-id="8351" data-spm-anchor-id="a313x.search_index.0.i4.931a3a81BTg0yF" xmlns:xlink="http://www.w3.org/1999/xlink" width="300" height="300"><path d="M398 913.71c0.88-1.08 1.75-2.19 2.57-3.33-0.8 1.14-1.66 2.25-2.57 3.33z m7.8-11.82c0.67-1.28 1.3-2.6 1.89-3.95-0.57 1.35-1.2 2.67-1.86 3.95z m473.88-777.18c-27.55-21.24-73.89-22.87-131.89-4.38-66.58 21.22-142.12 67-212.7 129a18.33 18.33 0 0 1-25.78-1.55q-14.7 13.43-29.12 27.86a672.87 672.87 0 0 0-81.29 98.7 18.37 18.37 0 0 1 5.4 25.22 637.45 637.45 0 0 0-57.88 114 138.1 138.1 0 0 1-101.24 86.08L132.62 623A49.25 49.25 0 0 0 111 705.28l187.6 187.59c29.49 0.76 58.64-17.75 67.32-50.12l23.48-113.13a120.25 120.25 0 0 1 74.67-87.83c73.57-28.23 158-77.6 231.34-150.91 129.03-129.03 200.08-276.51 184.27-366.17z" fill="#FFFFFF" p-id="8352"></path><path d="M889.43 287.45c-29 76.71-86.45 160.43-161.73 235.71-63.23 63.22-143.11 115.35-224.94 146.77a138.08 138.08 0 0 0-86.08 101.23l-23.36 112.57a49.24 49.24 0 0 1-82.26 21.6l-12.46-12.46c29.49 0.76 58.64-17.75 67.32-50.12l23.48-113.13a120.25 120.25 0 0 1 74.67-87.83c73.57-28.23 158-77.6 231.34-150.91 129-129 200.08-276.51 184.27-366.17a65.16 65.16 0 0 1 6.37 5.59c28.95 28.95 30.18 86.24 3.38 157.15z" fill="#DDDDDD" p-id="8353"></path><path d="M758.84 257.51m-45.38 0a45.38 45.38 0 1 0 90.76 0 45.38 45.38 0 1 0-90.76 0Z" fill="#d81e06" p-id="8354" data-spm-anchor-id="a313x.search_index.0.i1.931a3a81BTg0yF" class="selected"></path><path d="M208.51 741a18.37 18.37 0 0 1-10-33.77l92-59.8a18.37 18.37 0 0 1 20 30.8l-92 59.8a18.3 18.3 0 0 1-10 2.97zM292.73 824.45a18.37 18.37 0 0 1-15.38-28.37l59.8-92a18.36 18.36 0 0 1 30.8 20l-59.8 92a18.34 18.34 0 0 1-15.42 8.37z" fill="#1296db" p-id="8355" data-spm-anchor-id="a313x.search_index.0.i3.931a3a81BTg0yF" class=""></path><path d="M445.26 331.81a18.37 18.37 0 0 1-13.95-30.3c2.87-3.36 5.83-6.75 8.79-10.08a18.36 18.36 0 0 1 27.45 24.4c-2.81 3.16-5.61 6.37-8.32 9.54a18.34 18.34 0 0 1-13.97 6.44z" fill="#2c2c2c" p-id="8356" data-spm-anchor-id="a313x.search_index.0.i5.931a3a81BTg0yF" class=""></path><path d="M912 104.33C875.39 67.71 813.1 61 736.63 85.34c-71.29 22.72-151.48 71.17-225.78 136.41a18.39 18.39 0 0 0-1.68 25.92 0.57 0.57 0 0 0 0.14 0.13 18.33 18.33 0 0 0 25.78 1.55c70.58-62 146.12-107.8 212.7-129 58-18.49 104.34-16.86 131.89 4.38a65.16 65.16 0 0 1 6.37 5.59c29 28.95 30.18 86.24 3.38 157.15-29 76.71-86.45 160.43-161.73 235.71-63.23 63.22-143.11 115.35-224.94 146.77a138.08 138.08 0 0 0-86.08 101.23l-23.36 112.55a49.24 49.24 0 0 1-82.26 21.6l-12.46-12.46L111 705.28A49.25 49.25 0 0 1 132.62 623l112.56-23.35a138.1 138.1 0 0 0 101.24-86.08 637.45 637.45 0 0 1 57.88-114 18.37 18.37 0 0 0-5.4-25.22 1.13 1.13 0 0 0-0.21-0.15 18.37 18.37 0 0 0-25.36 5.61 674.61 674.61 0 0 0-61.19 120.59 101.5 101.5 0 0 1-74.43 63.29L124.6 587.18c-0.34 0.06-0.69 0.14-1 0.23A86 86 0 0 0 85 731.25l200 200a85 85 0 0 0 60.41 25.26 87.36 87.36 0 0 0 22.64-3 85.1 85.1 0 0 0 60.78-60.8c0.1-0.33 0.17-0.67 0.25-1l23.48-113.11a101.47 101.47 0 0 1 63.28-74.42c86.52-33.22 171-88.3 237.73-155.08 78.9-78.88 139.3-167.2 170.12-248.71 32.69-86.22 28.52-155.87-11.69-196.06z" fill="#1296db" p-id="8357" data-spm-anchor-id="a313x.search_index.0.i2.931a3a81BTg0yF" class=""></path></svg>